<mxfile host="app.diagrams.net" agent="Mozilla/5.0 (Windows NT 10.0; Win64; x64) AppleWebKit/537.36 (KHTML, like Gecko) Chrome/138.0.0.0 Safari/537.36" version="27.1.6">
  <diagram name="Page-1" id="myPsi9SlN5PrifdDEoaw">
    <mxGraphModel dx="470" dy="251" grid="1" gridSize="10" guides="1" tooltips="1" connect="1" arrows="1" fold="1" page="1" pageScale="1" pageWidth="850" pageHeight="1100" math="0" shadow="0">
      <root>
        <mxCell id="0" />
        <mxCell id="1" parent="0" />
        <mxCell id="jsU0Ib2gHXLgXyIZZpkX-18" value="&lt;font style=&quot;font-size: 14px;&quot;&gt;&lt;b&gt;Untrusted Network&lt;/b&gt;&lt;/font&gt;" style="sketch=0;aspect=fixed;pointerEvents=1;shadow=0;dashed=0;html=1;labelPosition=center;verticalLabelPosition=bottom;verticalAlign=top;align=center;shape=mxgraph.mscae.enterprise.internet;fillColor=#dae8fc;strokeColor=#6c8ebf;" parent="1" vertex="1">
          <mxGeometry x="570" y="440" width="258.07" height="160" as="geometry" />
        </mxCell>
        <mxCell id="jsU0Ib2gHXLgXyIZZpkX-20" value="&lt;font style=&quot;font-size: 14px;&quot;&gt;&lt;b&gt;&amp;nbsp;MDM Managed Device&lt;/b&gt;&lt;/font&gt;" style="sketch=0;aspect=fixed;pointerEvents=1;shadow=0;dashed=0;html=1;strokeColor=#6c8ebf;labelPosition=center;verticalLabelPosition=bottom;verticalAlign=top;align=center;fillColor=#dae8fc;shape=mxgraph.azure.mobile" parent="1" vertex="1">
          <mxGeometry x="240" y="410" width="161" height="230" as="geometry" />
        </mxCell>
        <mxCell id="jsU0Ib2gHXLgXyIZZpkX-22" value="" style="endArrow=classic;startArrow=classic;html=1;rounded=0;fillColor=#dae8fc;strokeColor=#6c8ebf;" parent="1" edge="1">
          <mxGeometry width="50" height="50" relative="1" as="geometry">
            <mxPoint x="440" y="519.66" as="sourcePoint" />
            <mxPoint x="560" y="519.66" as="targetPoint" />
          </mxGeometry>
        </mxCell>
        <mxCell id="jsU0Ib2gHXLgXyIZZpkX-26" value="" style="endArrow=classic;startArrow=classic;html=1;rounded=0;fillColor=#dae8fc;strokeColor=#6c8ebf;" parent="1" edge="1">
          <mxGeometry width="50" height="50" relative="1" as="geometry">
            <mxPoint x="850" y="519.66" as="sourcePoint" />
            <mxPoint x="970" y="519.66" as="targetPoint" />
          </mxGeometry>
        </mxCell>
        <mxCell id="jsU0Ib2gHXLgXyIZZpkX-30" value="" style="rounded=0;whiteSpace=wrap;html=1;strokeColor=#FF0000;strokeWidth=2;perimeterSpacing=0;dashed=1;flipH=1;flipV=1;" parent="1" vertex="1">
          <mxGeometry x="260.5" y="460" width="120" height="60" as="geometry" />
        </mxCell>
        <mxCell id="jsU0Ib2gHXLgXyIZZpkX-31" value="Managed Device System Software" style="rounded=0;whiteSpace=wrap;html=1;strokeWidth=2;strokeColor=#FF0000;" parent="1" vertex="1">
          <mxGeometry x="260.5" y="520" width="120" height="60" as="geometry" />
        </mxCell>
        <mxCell id="jsU0Ib2gHXLgXyIZZpkX-29" value="MDM Agent Software" style="rounded=0;whiteSpace=wrap;html=1;strokeColor=#007FFF;strokeWidth=2;perimeterSpacing=0;glass=0;shadow=0;direction=west;flipH=0;flipV=1;dashed=1;fillColor=none;" parent="1" vertex="1">
          <mxGeometry x="260.5" y="460" width="120" height="60" as="geometry" />
        </mxCell>
        <mxCell id="jsU0Ib2gHXLgXyIZZpkX-36" value="&lt;font style=&quot;font-size: 14px;&quot;&gt;&lt;b&gt;MDM Server System&lt;/b&gt;&lt;/font&gt;" style="sketch=0;aspect=fixed;pointerEvents=1;shadow=0;dashed=0;html=1;strokeColor=#6c8ebf;labelPosition=center;verticalLabelPosition=bottom;verticalAlign=top;align=center;fillColor=#dae8fc;shape=mxgraph.mscae.enterprise.server_generic;gradientColor=none;" parent="1" vertex="1">
          <mxGeometry x="1008.71" y="400" width="115.2" height="240" as="geometry" />
        </mxCell>
        <mxCell id="jsU0Ib2gHXLgXyIZZpkX-37" value="GPOS or Network Device&amp;nbsp;" style="rounded=1;whiteSpace=wrap;html=1;strokeWidth=2;strokeColor=#FF0000;" parent="1" vertex="1">
          <mxGeometry x="1017.42" y="502.5" width="97.78" height="45" as="geometry" />
        </mxCell>
        <mxCell id="jsU0Ib2gHXLgXyIZZpkX-38" value="TOE - MDM System Software" style="rounded=1;whiteSpace=wrap;html=1;strokeWidth=2;strokeColor=#007FFF;" parent="1" vertex="1">
          <mxGeometry x="1017.42" y="460" width="97.78" height="40" as="geometry" />
        </mxCell>
      </root>
    </mxGraphModel>
  </diagram>
</mxfile>
